# xmcd CD database file
#
# Track frame offsets:
#	150
#	25405
#	44776
#	61962
#	93919
#	114410
#
# Disc length: 1794 seconds
#
# Revision: 0
# Processed by: cddbd v1.5.1PL2 Copyright (c) Steve Scherf et al.
# Submitted via: CDex 1.51
#
DISCID=4c070006
DTITLE=シュガーベイブ - シュガーベイブ・ラストライブ（７６．３．３１荻窪ロフト）
DYEAR=1900
DGENRE=Rock
TTITLE0=シュガーベイブ - パレード　
TTITLE1=シュガーベイブ - 指切り　　
TTITLE2=シュガーベイブ - こぬか雨　
TTITLE3=シュガーベイブ - ＷＩＮＤＹ　ＬＡＤＹ
TTITLE4=シュガーベイブ - 砂の女　　
TTITLE5=シュガーベイブ - ＤＯＷＮ　ＴＯＷＮ
EXTD=
EXTT0=
EXTT1=
EXTT2=
EXTT3=
EXTT4=
EXTT5=
PLAYORDER=
